<svg xmlns="http://www.w3.org/2000/svg" viewBox="0 0 320 200" color="#1A1817" aria-hidden="true" focusable="false"><path fill="#F2C14E" d="M 69.81 67.77 C 72.24 67.79 72.15 95.6 77.04 102.61 C 81.93 109.61 99.07 107.31 99.13 109.79 C 99.2 112.27 82.29 110.5 77.42 117.47 C 72.56 124.43 72.23 151.71 69.93 151.58 C 67.63 151.45 68.52 123.63 63.63 116.71 C 58.74 109.79 40.78 112.42 40.59 110.05 C 40.4 107.68 57.61 109.53 62.48 102.48 C 67.35 95.44 67.39 67.75 69.81 67.77 Z"/><path fill="#E0519E" d="M 170.14 42.04 C 171.61 41.96 171.21 60.36 174.47 65.03 C 177.72 69.69 189.68 68.38 189.66 70.01 C 189.63 71.64 177.53 70.2 174.32 74.82 C 171.11 79.44 171.96 97.77 170.41 97.73 C 168.85 97.69 168.2 79.26 164.98 74.59 C 161.75 69.92 150.95 71.23 151.06 69.71 C 151.18 68.2 162.5 70.1 165.68 65.49 C 168.86 60.88 168.68 42.11 170.14 42.04 Z"/><path fill="#A9BCEC" d="M 249.58 95.76 C 251.53 95.75 251.87 118.57 255.89 124.26 C 259.92 129.95 273.77 127.95 273.74 129.91 C 273.71 131.86 259.65 130.28 255.7 135.99 C 251.75 141.7 251.94 164.23 250.03 164.16 C 248.13 164.09 248.13 141.31 244.27 135.57 C 240.4 129.83 226.87 131.59 226.85 129.72 C 226.84 127.85 240.4 130 244.19 124.34 C 247.97 118.68 247.63 95.77 249.58 95.76 Z"/></svg>