<svg xmlns="http://www.w3.org/2000/svg" viewBox="0 0 120 120" color="#1A1817" role="img"><title>Taza viva</title><desc>Taza en un trazo continuo</desc><path fill="none" stroke="currentColor" stroke-width="7" stroke-linecap="round" stroke-linejoin="round" d="M 30 44 C 30.35 49.7 29.71 70.23 32.09 78.21 C 34.47 86.2 39.65 89.3 44.3 91.91 C 48.95 94.53 54.74 93.91 59.98 93.89 C 65.22 93.87 71.12 94.47 75.76 91.81 C 80.4 89.15 85.45 85.9 87.82 77.93 C 90.2 69.96 89.64 49.65 90 44"/><path fill="none" stroke="currentColor" stroke-width="7" stroke-linecap="round" stroke-linejoin="round" d="M 90 46 C 92.32 45.97 100.97 43.44 103.92 45.8 C 106.87 48.15 108.4 55.79 107.71 60.13 C 107.01 64.46 102.86 69.51 99.74 71.82 C 96.62 74.13 90.79 73.64 89 74"/><path fill="none" stroke="currentColor" stroke-width="6.3" stroke-linecap="round" stroke-linejoin="round" d="M 90 44 C 90 45.76 87.73 47.86 84.27 49.29 C 80.82 50.72 74.86 52.01 69.27 52.56 C 63.68 53.1 56.32 53.1 50.73 52.56 C 45.14 52.01 39.18 50.72 35.73 49.29 C 32.27 47.86 30 45.76 30 44 C 30 42.24 32.27 40.14 35.73 38.71 C 39.18 37.28 45.14 35.99 50.73 35.44 C 56.32 34.9 63.68 34.9 69.27 35.44 C 74.86 35.99 80.82 37.28 84.27 38.71 C 87.73 40.14 90 42.24 90 44 Z"/></svg>